<?xml version="1.0" encoding="UTF-8" standalone="no"?><svg xmlns="http://www.w3.org/2000/svg" xmlns:xlink="http://www.w3.org/1999/xlink" contentScriptType="application/ecmascript" contentStyleType="text/css" height="577px" preserveAspectRatio="none" style="width:613px;height:577px;" version="1.1" viewBox="0 0 613 577" width="613px" zoomAndPan="magnify"><defs><filter height="300%" id="f1fqoq0dvfhzkb" width="300%" x="-1" y="-1"><feGaussianBlur result="blurOut" stdDeviation="2.0"/><feColorMatrix in="blurOut" result="blurOut2" type="matrix" values="0 0 0 0 0 0 0 0 0 0 0 0 0 0 0 0 0 0 .4 0"/><feOffset dx="4.0" dy="4.0" in="blurOut2" result="blurOut3"/><feBlend in="SourceGraphic" in2="blurOut3" mode="normal"/></filter></defs><g><!--cluster Mastermind--><rect fill="#FFFFFF" filter="url(#f1fqoq0dvfhzkb)" height="542" style="stroke: #000000; stroke-width: 1.5;" width="463" x="63.5" y="24"/><text fill="#000000" font-family="sans-serif" font-size="14" font-weight="bold" lengthAdjust="spacingAndGlyphs" textLength="92" x="249" y="38.9951">Mastermind</text><ellipse cx="171.533" cy="77.5236" fill="#FEFECE" filter="url(#f1fqoq0dvfhzkb)" rx="56.033" ry="14.5236" style="stroke: #A80036; stroke-width: 1.5;"/><text fill="#000000" font-family="sans-serif" font-size="14" lengthAdjust="spacingAndGlyphs" textLength="75" x="134.033" y="82.1721">Start game</text><ellipse cx="417.7133" cy="77.3427" fill="#FEFECE" filter="url(#f1fqoq0dvfhzkb)" rx="79.7133" ry="18.3427" style="stroke: #A80036; stroke-width: 1.5;"/><text fill="#000000" font-family="sans-serif" font-size="14" lengthAdjust="spacingAndGlyphs" textLength="130" x="352.7133" y="81.9911">Set game variables</text><ellipse cx="171.56" cy="196.212" fill="#FEFECE" filter="url(#f1fqoq0dvfhzkb)" rx="69.06" ry="16.212" style="stroke: #A80036; stroke-width: 1.5;"/><text fill="#000000" font-family="sans-serif" font-size="14" lengthAdjust="spacingAndGlyphs" textLength="104" x="119.56" y="200.8604">Generate code</text><ellipse cx="171.3872" cy="293.7774" fill="#FEFECE" filter="url(#f1fqoq0dvfhzkb)" rx="91.8872" ry="20.7774" style="stroke: #A80036; stroke-width: 1.5;"/><text fill="#000000" font-family="sans-serif" font-size="14" lengthAdjust="spacingAndGlyphs" textLength="158" x="92.3872" y="298.4259">Prompt for code guess</text><ellipse cx="162.7005" cy="417.4401" fill="#FEFECE" filter="url(#f1fqoq0dvfhzkb)" rx="82.7005" ry="18.9401" style="stroke: #A80036; stroke-width: 1.5;"/><text fill="#000000" font-family="sans-serif" font-size="14" lengthAdjust="spacingAndGlyphs" textLength="137" x="94.2005" y="422.0885">Player enters guess</text><ellipse cx="162.5752" cy="535.215" fill="#FEFECE" filter="url(#f1fqoq0dvfhzkb)" rx="64.0752" ry="15.215" style="stroke: #A80036; stroke-width: 1.5;"/><text fill="#000000" font-family="sans-serif" font-size="14" lengthAdjust="spacingAndGlyphs" textLength="91" x="117.0752" y="539.8635">Check guess</text><ellipse cx="426.4934" cy="417.6987" fill="#FEFECE" filter="url(#f1fqoq0dvfhzkb)" rx="83.9934" ry="19.1987" style="stroke: #A80036; stroke-width: 1.5;"/><text fill="#000000" font-family="sans-serif" font-size="14" lengthAdjust="spacingAndGlyphs" textLength="140" x="356.4934" y="422.3471">Check guess is valid</text><!--entity player--><ellipse cx="26.5" cy="46" fill="#FEFECE" filter="url(#f1fqoq0dvfhzkb)" rx="8" ry="8" style="stroke: #A80036; stroke-width: 2.0;"/><path d="M26.5,54 L26.5,81 M13.5,62 L39.5,62 M26.5,81 L13.5,96 M26.5,81 L39.5,96 " fill="none" filter="url(#f1fqoq0dvfhzkb)" style="stroke: #A80036; stroke-width: 2.0;"/><text fill="#000000" font-family="sans-serif" font-size="14" lengthAdjust="spacingAndGlyphs" textLength="41" x="6" y="115.9951">player</text><!--entity settings--><ellipse cx="573.5" cy="386" fill="#FEFECE" filter="url(#f1fqoq0dvfhzkb)" rx="8" ry="8" style="stroke: #A80036; stroke-width: 2.0;"/><path d="M573.5,394 L573.5,421 M560.5,402 L586.5,402 M573.5,421 L560.5,436 M573.5,421 L586.5,436 " fill="none" filter="url(#f1fqoq0dvfhzkb)" style="stroke: #A80036; stroke-width: 2.0;"/><text fill="#000000" font-family="sans-serif" font-size="14" lengthAdjust="spacingAndGlyphs" textLength="56" x="545.5" y="455.9951">settings</text><!--link player to Start game--><path d="M47.17,77.5 C68.16,77.5 89.14,77.5 110.12,77.5 " fill="none" id="player-&gt;Start game" style="stroke: #A80036; stroke-width: 1.0;"/><polygon fill="#A80036" points="115.16,77.5,106.16,73.5,110.16,77.5,106.16,81.5,115.16,77.5" style="stroke: #A80036; stroke-width: 1.0;"/><!--reverse link Set game variables to settings--><path d="M427.9,101.03 C453.84,157.23 521.67,304.21 554.78,375.94 " fill="none" id="Set game variables&lt;-settings" style="stroke: #A80036; stroke-width: 1.0;"/><polygon fill="#A80036" points="425.67,96.2,425.8156,106.0478,427.768,100.7385,433.0772,102.691,425.67,96.2" style="stroke: #A80036; stroke-width: 1.0;"/><!--reverse link Start game to Set game variables--><path d="M232.67,77.5 C264.46,77.5 303.7,77.5 337.83,77.5 " fill="none" id="Start game&lt;-Set game variables" style="stroke: #A80036; stroke-width: 1.0; stroke-dasharray: 7.0,7.0;"/><polygon fill="#A80036" points="227.63,77.5,236.63,81.5,232.63,77.5,236.63,73.5,227.63,77.5" style="stroke: #A80036; stroke-width: 1.0;"/><text fill="#000000" font-family="sans-serif" font-size="13" lengthAdjust="spacingAndGlyphs" textLength="61" x="252.25" y="70.5669">«include»</text><!--link Start game to Generate code--><path d="M171.5,92.32 C171.5,112.72 171.5,151.01 171.5,174.63 " fill="none" id="Start game-&gt;Generate code" style="stroke: #A80036; stroke-width: 1.0;"/><polygon fill="#A80036" points="171.5,179.72,175.5,170.72,171.5,174.72,167.5,170.72,171.5,179.72" style="stroke: #A80036; stroke-width: 1.0;"/><!--link Generate code to Prompt for code guess--><path d="M171.5,212 C171.5,226.82 171.5,249.76 171.5,267.45 " fill="none" id="Generate code-&gt;Prompt for code guess" style="stroke: #A80036; stroke-width: 1.0;"/><polygon fill="#A80036" points="171.5,272.76,175.5,263.76,171.5,267.76,167.5,263.76,171.5,272.76" style="stroke: #A80036; stroke-width: 1.0;"/><!--link Prompt for code guess to Player enters guess--><path d="M170.01,315.06 C168.42,336.53 165.9,370.54 164.23,393.18 " fill="none" id="Prompt for code guess-&gt;Player enters guess" style="stroke: #A80036; stroke-width: 1.0;"/><polygon fill="#A80036" points="163.84,398.39,168.4976,389.712,164.2115,393.4038,160.5197,389.1177,163.84,398.39" style="stroke: #A80036; stroke-width: 1.0;"/><!--link player to Player enters guess--><path d="M25.25,119.27 C25.37,168.3 30.87,251.88 62.5,315 C79.26,348.45 111.12,377.81 134.39,396.23 " fill="none" id="player-&gt;Player enters guess" style="stroke: #A80036; stroke-width: 1.0;"/><polygon fill="#A80036" points="138.34,399.31,133.7177,390.6132,134.4025,396.2285,128.7872,396.9132,138.34,399.31" style="stroke: #A80036; stroke-width: 1.0;"/><!--link Player enters guess to Check guess--><path d="M162.5,436.55 C162.5,457.72 162.5,492.69 162.5,514.48 " fill="none" id="Player enters guess-&gt;Check guess" style="stroke: #A80036; stroke-width: 1.0;"/><polygon fill="#A80036" points="162.5,519.72,166.5,510.72,162.5,514.72,158.5,510.72,162.5,519.72" style="stroke: #A80036; stroke-width: 1.0;"/><!--reverse link Player enters guess to Check guess is valid--><path d="M250.4,417.5 C279.97,417.5 312.88,417.5 342.17,417.5 " fill="none" id="Player enters guess&lt;-Check guess is valid" style="stroke: #A80036; stroke-width: 1.0; stroke-dasharray: 7.0,7.0;"/><polygon fill="#A80036" points="245.31,417.5,254.31,421.5,250.31,417.5,254.31,413.5,245.31,417.5" style="stroke: #A80036; stroke-width: 1.0;"/><text fill="#000000" font-family="sans-serif" font-size="13" lengthAdjust="spacingAndGlyphs" textLength="61" x="263.25" y="410.5669">«include»</text><!--reverse link Check guess is valid to settings--><path d="M515.73,417.5 C525.49,417.5 535.25,417.5 545.01,417.5 " fill="none" id="Check guess is valid&lt;-settings" style="stroke: #A80036; stroke-width: 1.0;"/><polygon fill="#A80036" points="510.62,417.5,519.62,421.5,515.62,417.5,519.62,413.5,510.62,417.5" style="stroke: #A80036; stroke-width: 1.0;"/><!--
@startuml
skinparam PackageStyle rectangle
actor player
actor settings
rectangle Mastermind {
    player -> (Start game)
    (Set game variables) <- settings
    (Start game) <. (Set game variables) : << include >>
    (Start game) - -> (Generate code)

    (Generate code) - -> (Prompt for code guess)
    (Prompt for code guess) - -> (Player enters guess)
    player -> (Player enters guess)
    (Player enters guess) - -> (Check guess)
    (Player enters guess) <. (Check guess is valid) : <<include>>
    (Check guess is valid) <- settings
}

@enduml

PlantUML version 1.2019.09(Mon Aug 26 18:19:51 CEST 2019)
(GPL source distribution)
Java Runtime: OpenJDK Runtime Environment
JVM: OpenJDK 64-Bit Server VM
Java Version: 1.8.0_242-b08
Operating System: Linux
OS Version: 5.6.5-3-MANJARO
Default Encoding: UTF-8
Language: en
Country: US
--></g></svg>